<svg width="30" height="31" viewBox="0 0 30 31" fill="none" xmlns="http://www.w3.org/2000/svg">
<path d="M16.765 5.652C16.398 5.5 15.932 5.5 15 5.5C14.068 5.5 13.602 5.5 13.235 5.652C12.9921 5.75251 12.7715 5.8999 12.5857 6.08572C12.3999 6.27155 12.2525 6.49218 12.152 6.735C12.06 6.958 12.023 7.219 12.009 7.598C12.0027 7.87199 11.927 8.1399 11.7888 8.37657C11.6506 8.61324 11.4545 8.81091 11.219 8.951C10.9799 9.08504 10.7106 9.1561 10.4365 9.1575C10.1624 9.1589 9.89242 9.09059 9.65196 8.959C9.31596 8.781 9.07296 8.683 8.83196 8.651C8.30628 8.58187 7.77466 8.72431 7.35396 9.047C7.03996 9.29 6.80596 9.693 6.33996 10.5C5.87396 11.307 5.63996 11.71 5.58896 12.105C5.5546 12.3655 5.57188 12.6301 5.63983 12.8839C5.70778 13.1377 5.82505 13.3756 5.98496 13.584C6.13296 13.776 6.33996 13.937 6.66096 14.139C7.13396 14.436 7.43796 14.942 7.43796 15.5C7.43796 16.058 7.13396 16.564 6.66096 16.86C6.33996 17.063 6.13196 17.224 5.98496 17.416C5.82505 17.6244 5.70778 17.8623 5.63983 18.1161C5.57188 18.3699 5.5546 18.6345 5.58896 18.895C5.64096 19.289 5.87396 19.693 6.33896 20.5C6.80596 21.307 7.03896 21.71 7.35396 21.953C7.5624 22.1129 7.8003 22.2302 8.05407 22.2981C8.30784 22.3661 8.57251 22.3834 8.83296 22.349C9.07296 22.317 9.31596 22.219 9.65196 22.041C9.89242 21.9094 10.1624 21.8411 10.4365 21.8425C10.7106 21.8439 10.9799 21.915 11.219 22.049C11.702 22.329 11.989 22.844 12.009 23.402C12.023 23.782 12.059 24.042 12.152 24.265C12.2525 24.5078 12.3999 24.7284 12.5857 24.9143C12.7715 25.1001 12.9921 25.2475 13.235 25.348C13.602 25.5 14.068 25.5 15 25.5C15.932 25.5 16.398 25.5 16.765 25.348C17.0078 25.2475 17.2284 25.1001 17.4142 24.9143C17.6001 24.7284 17.7474 24.5078 17.848 24.265C17.94 24.042 17.977 23.782 17.991 23.402C18.011 22.844 18.298 22.328 18.781 22.049C19.0201 21.915 19.2893 21.8439 19.5634 21.8425C19.8375 21.8411 20.1075 21.9094 20.348 22.041C20.684 22.219 20.927 22.317 21.167 22.349C21.4274 22.3834 21.6921 22.3661 21.9459 22.2981C22.1996 22.2302 22.4375 22.1129 22.646 21.953C22.961 21.711 23.194 21.307 23.66 20.5C24.126 19.693 24.36 19.29 24.411 18.895C24.4453 18.6345 24.428 18.3699 24.3601 18.1161C24.2921 17.8623 24.1749 17.6244 24.015 17.416C23.867 17.224 23.66 17.063 23.339 16.861C23.1047 16.7186 22.9105 16.519 22.7746 16.2809C22.6386 16.0428 22.5655 15.7741 22.562 15.5C22.562 14.942 22.866 14.436 23.339 14.14C23.66 13.937 23.868 13.776 24.015 13.584C24.1749 13.3756 24.2921 13.1377 24.3601 12.8839C24.428 12.6301 24.4453 12.3655 24.411 12.105C24.359 11.711 24.126 11.307 23.661 10.5C23.194 9.693 22.961 9.29 22.646 9.047C22.4375 8.88709 22.1996 8.76981 21.9459 8.70187C21.6921 8.63392 21.4274 8.61664 21.167 8.651C20.927 8.683 20.684 8.781 20.347 8.959C20.1066 9.09042 19.8368 9.15862 19.5629 9.15722C19.289 9.15582 19.0199 9.08486 18.781 8.951C18.5454 8.81091 18.3493 8.61324 18.2112 8.37657C18.073 8.1399 17.9972 7.87199 17.991 7.598C17.977 7.218 17.941 6.958 17.848 6.735C17.7474 6.49218 17.6001 6.27155 17.4142 6.08572C17.2284 5.8999 17.0078 5.75251 16.765 5.652Z" stroke="#19191B" stroke-width="1.5"/>
<path d="M15.0001 18.65C16.7574 18.65 18.182 17.2397 18.182 15.5C18.182 13.7603 16.7574 12.35 15.0001 12.35C13.2427 12.35 11.8181 13.7603 11.8181 15.5C11.8181 17.2397 13.2427 18.65 15.0001 18.65Z" stroke="#19191B" stroke-width="1.5"/>
</svg>
